<svg id="visual" viewBox="0 0 900 600" width="900" height="600" xmlns="http://www.w3.org/2000/svg" xmlns:xlink="http://www.w3.org/1999/xlink" version="1.1"><path d="M0 133L82 133L82 103L164 103L164 115L245 115L245 121L327 121L327 103L409 103L409 91L491 91L491 151L573 151L573 103L655 103L655 133L736 133L736 133L818 133L818 139L900 139L900 211L900 0L900 0L818 0L818 0L736 0L736 0L655 0L655 0L573 0L573 0L491 0L491 0L409 0L409 0L327 0L327 0L245 0L245 0L164 0L164 0L82 0L82 0L0 0Z" fill="#121214"></path><path d="M0 199L82 199L82 157L164 157L164 169L245 169L245 157L327 157L327 175L409 175L409 193L491 193L491 211L573 211L573 193L655 193L655 217L736 217L736 187L818 187L818 241L900 241L900 259L900 209L900 137L818 137L818 131L736 131L736 131L655 131L655 101L573 101L573 149L491 149L491 89L409 89L409 101L327 101L327 119L245 119L245 113L164 113L164 101L82 101L82 131L0 131Z" fill="#242545"></path><path d="M0 301L82 301L82 271L164 271L164 259L245 259L245 307L327 307L327 289L409 289L409 349L491 349L491 349L573 349L573 289L655 289L655 301L736 301L736 313L818 313L818 295L900 295L900 421L900 257L900 239L818 239L818 185L736 185L736 215L655 215L655 191L573 191L573 209L491 209L491 191L409 191L409 173L327 173L327 155L245 155L245 167L164 167L164 155L82 155L82 197L0 197Z" fill="#3a3879"></path><path d="M0 523L82 523L82 547L164 547L164 535L245 535L245 553L327 553L327 535L409 535L409 535L491 535L491 517L573 517L573 481L655 481L655 517L736 517L736 523L818 523L818 493L900 493L900 541L900 419L900 293L818 293L818 311L736 311L736 299L655 299L655 287L573 287L573 347L491 347L491 347L409 347L409 287L327 287L327 305L245 305L245 257L164 257L164 269L82 269L82 299L0 299Z" fill="#5949af"></path><path d="M0 601L82 601L82 601L164 601L164 601L245 601L245 601L327 601L327 601L409 601L409 601L491 601L491 601L573 601L573 601L655 601L655 601L736 601L736 601L818 601L818 601L900 601L900 601L900 539L900 491L818 491L818 521L736 521L736 515L655 515L655 479L573 479L573 515L491 515L491 533L409 533L409 533L327 533L327 551L245 551L245 533L164 533L164 545L82 545L82 521L0 521Z" fill="#8257e5"></path></svg>