<svg xmlns="http://www.w3.org/2000/svg" version="1.1" xmlns:xlink="http://www.w3.org/1999/xlink" xmlns:svgjs="http://svgjs.dev/svgjs" viewBox="0 0 800 800"><g shape-rendering="crispEdges"><g><use xlink:href="#SvgjsSymbol1000" x="325" y="425" fill="8257e5"></use><use xlink:href="#SvgjsSymbol1001" x="325" y="425" fill="#b785ff"></use><use xlink:href="#SvgjsSymbol1002" x="325" y="425" fill="#4d2ab2"></use></g><g><use xlink:href="#SvgjsSymbol1000" x="325" y="387.5" fill="8257e5"></use><use xlink:href="#SvgjsSymbol1001" x="325" y="387.5" fill="#b785ff"></use><use xlink:href="#SvgjsSymbol1002" x="325" y="387.5" fill="#4d2ab2"></use></g><g><use xlink:href="#SvgjsSymbol1000" x="337.5" y="362.5" fill="8257e5"></use><use xlink:href="#SvgjsSymbol1001" x="337.5" y="362.5" fill="#b785ff"></use><use xlink:href="#SvgjsSymbol1002" x="337.5" y="362.5" fill="#4d2ab2"></use></g><g><use xlink:href="#SvgjsSymbol1000" x="375" y="300" fill="8257e5"></use><use xlink:href="#SvgjsSymbol1001" x="375" y="300" fill="#b785ff"></use><use xlink:href="#SvgjsSymbol1002" x="375" y="300" fill="#4d2ab2"></use></g><g><use xlink:href="#SvgjsSymbol1000" x="262.5" y="262.5" fill="8257e5"></use><use xlink:href="#SvgjsSymbol1001" x="262.5" y="262.5" fill="#b785ff"></use><use xlink:href="#SvgjsSymbol1002" x="262.5" y="262.5" fill="#4d2ab2"></use></g><g><use xlink:href="#SvgjsSymbol1000" x="150" y="287.5" fill="8257e5"></use><use xlink:href="#SvgjsSymbol1001" x="150" y="287.5" fill="#b785ff"></use><use xlink:href="#SvgjsSymbol1002" x="150" y="287.5" fill="#4d2ab2"></use></g><g><use xlink:href="#SvgjsSymbol1000" x="162.5" y="387.5" fill="8257e5"></use><use xlink:href="#SvgjsSymbol1001" x="162.5" y="387.5" fill="#b785ff"></use><use xlink:href="#SvgjsSymbol1002" x="162.5" y="387.5" fill="#4d2ab2"></use></g><g><use xlink:href="#SvgjsSymbol1000" x="62.5" y="500" fill="8257e5"></use><use xlink:href="#SvgjsSymbol1001" x="62.5" y="500" fill="#b785ff"></use><use xlink:href="#SvgjsSymbol1002" x="62.5" y="500" fill="#4d2ab2"></use></g><g><use xlink:href="#SvgjsSymbol1000" x="75" y="262.5" fill="8257e5"></use><use xlink:href="#SvgjsSymbol1001" x="75" y="262.5" fill="#b785ff"></use><use xlink:href="#SvgjsSymbol1002" x="75" y="262.5" fill="#4d2ab2"></use></g><g><use xlink:href="#SvgjsSymbol1000" x="262.5" y="212.5" fill="8257e5"></use><use xlink:href="#SvgjsSymbol1001" x="262.5" y="212.5" fill="#b785ff"></use><use xlink:href="#SvgjsSymbol1002" x="262.5" y="212.5" fill="#4d2ab2"></use></g><g><use xlink:href="#SvgjsSymbol1000" x="462.5" y="300" fill="8257e5"></use><use xlink:href="#SvgjsSymbol1001" x="462.5" y="300" fill="#b785ff"></use><use xlink:href="#SvgjsSymbol1002" x="462.5" y="300" fill="#4d2ab2"></use></g><g><use xlink:href="#SvgjsSymbol1000" x="550" y="475" fill="8257e5"></use><use xlink:href="#SvgjsSymbol1001" x="550" y="475" fill="#b785ff"></use><use xlink:href="#SvgjsSymbol1002" x="550" y="475" fill="#4d2ab2"></use></g><g><use xlink:href="#SvgjsSymbol1000" x="662.5" y="325" fill="8257e5"></use><use xlink:href="#SvgjsSymbol1001" x="662.5" y="325" fill="#b785ff"></use><use xlink:href="#SvgjsSymbol1002" x="662.5" y="325" fill="#4d2ab2"></use></g><g><use xlink:href="#SvgjsSymbol1000" x="600" y="275" fill="8257e5"></use><use xlink:href="#SvgjsSymbol1001" x="600" y="275" fill="#b785ff"></use><use xlink:href="#SvgjsSymbol1002" x="600" y="275" fill="#4d2ab2"></use></g><g><use xlink:href="#SvgjsSymbol1000" x="562.5" y="237.5" fill="8257e5"></use><use xlink:href="#SvgjsSymbol1001" x="562.5" y="237.5" fill="#b785ff"></use><use xlink:href="#SvgjsSymbol1002" x="562.5" y="237.5" fill="#4d2ab2"></use></g><g><use xlink:href="#SvgjsSymbol1000" x="437.5" y="287.5" fill="8257e5"></use><use xlink:href="#SvgjsSymbol1001" x="437.5" y="287.5" fill="#b785ff"></use><use xlink:href="#SvgjsSymbol1002" x="437.5" y="287.5" fill="#4d2ab2"></use></g><g><use xlink:href="#SvgjsSymbol1000" x="437.5" y="400" fill="8257e5"></use><use xlink:href="#SvgjsSymbol1001" x="437.5" y="400" fill="#b785ff"></use><use xlink:href="#SvgjsSymbol1002" x="437.5" y="400" fill="#4d2ab2"></use></g><g><use xlink:href="#SvgjsSymbol1000" x="312.5" y="425" fill="8257e5"></use><use xlink:href="#SvgjsSymbol1001" x="312.5" y="425" fill="#b785ff"></use><use xlink:href="#SvgjsSymbol1002" x="312.5" y="425" fill="#4d2ab2"></use></g><g><use xlink:href="#SvgjsSymbol1000" x="250" y="387.5" fill="8257e5"></use><use xlink:href="#SvgjsSymbol1001" x="250" y="387.5" fill="#b785ff"></use><use xlink:href="#SvgjsSymbol1002" x="250" y="387.5" fill="#4d2ab2"></use></g><g><use xlink:href="#SvgjsSymbol1000" x="200" y="337.5" fill="8257e5"></use><use xlink:href="#SvgjsSymbol1001" x="200" y="337.5" fill="#b785ff"></use><use xlink:href="#SvgjsSymbol1002" x="200" y="337.5" fill="#4d2ab2"></use></g><g><use xlink:href="#SvgjsSymbol1000" x="175" y="287.5" fill="8257e5"></use><use xlink:href="#SvgjsSymbol1001" x="175" y="287.5" fill="#b785ff"></use><use xlink:href="#SvgjsSymbol1002" x="175" y="287.5" fill="#4d2ab2"></use></g><g><use xlink:href="#SvgjsSymbol1000" x="200" y="225" fill="8257e5"></use><use xlink:href="#SvgjsSymbol1001" x="200" y="225" fill="#b785ff"></use><use xlink:href="#SvgjsSymbol1002" x="200" y="225" fill="#4d2ab2"></use></g><g><use xlink:href="#SvgjsSymbol1000" x="237.5" y="162.5" fill="8257e5"></use><use xlink:href="#SvgjsSymbol1001" x="237.5" y="162.5" fill="#b785ff"></use><use xlink:href="#SvgjsSymbol1002" x="237.5" y="162.5" fill="#4d2ab2"></use></g><g><use xlink:href="#SvgjsSymbol1000" x="287.5" y="100" fill="8257e5"></use><use xlink:href="#SvgjsSymbol1001" x="287.5" y="100" fill="#b785ff"></use><use xlink:href="#SvgjsSymbol1002" x="287.5" y="100" fill="#4d2ab2"></use></g><g><use xlink:href="#SvgjsSymbol1000" x="337.5" y="87.5" fill="8257e5"></use><use xlink:href="#SvgjsSymbol1001" x="337.5" y="87.5" fill="#b785ff"></use><use xlink:href="#SvgjsSymbol1002" x="337.5" y="87.5" fill="#4d2ab2"></use></g><g><use xlink:href="#SvgjsSymbol1000" x="412.5" y="87.5" fill="8257e5"></use><use xlink:href="#SvgjsSymbol1001" x="412.5" y="87.5" fill="#b785ff"></use><use xlink:href="#SvgjsSymbol1002" x="412.5" y="87.5" fill="#4d2ab2"></use></g><g><use xlink:href="#SvgjsSymbol1000" x="537.5" y="175" fill="8257e5"></use><use xlink:href="#SvgjsSymbol1001" x="537.5" y="175" fill="#b785ff"></use><use xlink:href="#SvgjsSymbol1002" x="537.5" y="175" fill="#4d2ab2"></use></g><g><use xlink:href="#SvgjsSymbol1000" x="600" y="262.5" fill="8257e5"></use><use xlink:href="#SvgjsSymbol1001" x="600" y="262.5" fill="#b785ff"></use><use xlink:href="#SvgjsSymbol1002" x="600" y="262.5" fill="#4d2ab2"></use></g><g><use xlink:href="#SvgjsSymbol1000" x="662.5" y="362.5" fill="8257e5"></use><use xlink:href="#SvgjsSymbol1001" x="662.5" y="362.5" fill="#b785ff"></use><use xlink:href="#SvgjsSymbol1002" x="662.5" y="362.5" fill="#4d2ab2"></use></g><g><use xlink:href="#SvgjsSymbol1000" x="675" y="437.5" fill="8257e5"></use><use xlink:href="#SvgjsSymbol1001" x="675" y="437.5" fill="#b785ff"></use><use xlink:href="#SvgjsSymbol1002" x="675" y="437.5" fill="#4d2ab2"></use></g><g><use xlink:href="#SvgjsSymbol1000" x="612.5" y="512.5" fill="8257e5"></use><use xlink:href="#SvgjsSymbol1001" x="612.5" y="512.5" fill="#b785ff"></use><use xlink:href="#SvgjsSymbol1002" x="612.5" y="512.5" fill="#4d2ab2"></use></g><g><use xlink:href="#SvgjsSymbol1000" x="450" y="575" fill="8257e5"></use><use xlink:href="#SvgjsSymbol1001" x="450" y="575" fill="#b785ff"></use><use xlink:href="#SvgjsSymbol1002" x="450" y="575" fill="#4d2ab2"></use></g><g><use xlink:href="#SvgjsSymbol1000" x="300" y="562.5" fill="8257e5"></use><use xlink:href="#SvgjsSymbol1001" x="300" y="562.5" fill="#b785ff"></use><use xlink:href="#SvgjsSymbol1002" x="300" y="562.5" fill="#4d2ab2"></use></g><g><use xlink:href="#SvgjsSymbol1000" x="212.5" y="550" fill="8257e5"></use><use xlink:href="#SvgjsSymbol1001" x="212.5" y="550" fill="#b785ff"></use><use xlink:href="#SvgjsSymbol1002" x="212.5" y="550" fill="#4d2ab2"></use></g><g><use xlink:href="#SvgjsSymbol1000" x="100" y="562.5" fill="8257e5"></use><use xlink:href="#SvgjsSymbol1001" x="100" y="562.5" fill="#b785ff"></use><use xlink:href="#SvgjsSymbol1002" x="100" y="562.5" fill="#4d2ab2"></use></g><g><use xlink:href="#SvgjsSymbol1000" x="212.5" y="425" fill="8257e5"></use><use xlink:href="#SvgjsSymbol1001" x="212.5" y="425" fill="#b785ff"></use><use xlink:href="#SvgjsSymbol1002" x="212.5" y="425" fill="#4d2ab2"></use></g><g><use xlink:href="#SvgjsSymbol1000" x="237.5" y="412.5" fill="8257e5"></use><use xlink:href="#SvgjsSymbol1001" x="237.5" y="412.5" fill="#b785ff"></use><use xlink:href="#SvgjsSymbol1002" x="237.5" y="412.5" fill="#4d2ab2"></use></g><g><use xlink:href="#SvgjsSymbol1000" x="312.5" y="412.5" fill="8257e5"></use><use xlink:href="#SvgjsSymbol1001" x="312.5" y="412.5" fill="#b785ff"></use><use xlink:href="#SvgjsSymbol1002" x="312.5" y="412.5" fill="#4d2ab2"></use></g><g><use xlink:href="#SvgjsSymbol1000" x="412.5" y="450" fill="8257e5"></use><use xlink:href="#SvgjsSymbol1001" x="412.5" y="450" fill="#b785ff"></use><use xlink:href="#SvgjsSymbol1002" x="412.5" y="450" fill="#4d2ab2"></use></g><g><use xlink:href="#SvgjsSymbol1000" x="500" y="475" fill="8257e5"></use><use xlink:href="#SvgjsSymbol1001" x="500" y="475" fill="#b785ff"></use><use xlink:href="#SvgjsSymbol1002" x="500" y="475" fill="#4d2ab2"></use></g><g><use xlink:href="#SvgjsSymbol1000" x="537.5" y="412.5" fill="8257e5"></use><use xlink:href="#SvgjsSymbol1001" x="537.5" y="412.5" fill="#b785ff"></use><use xlink:href="#SvgjsSymbol1002" x="537.5" y="412.5" fill="#4d2ab2"></use></g><g><use xlink:href="#SvgjsSymbol1000" x="487.5" y="312.5" fill="8257e5"></use><use xlink:href="#SvgjsSymbol1001" x="487.5" y="312.5" fill="#b785ff"></use><use xlink:href="#SvgjsSymbol1002" x="487.5" y="312.5" fill="#4d2ab2"></use></g><g><use xlink:href="#SvgjsSymbol1000" x="425" y="287.5" fill="8257e5"></use><use xlink:href="#SvgjsSymbol1001" x="425" y="287.5" fill="#b785ff"></use><use xlink:href="#SvgjsSymbol1002" x="425" y="287.5" fill="#4d2ab2"></use></g><g><use xlink:href="#SvgjsSymbol1000" x="375" y="312.5" fill="8257e5"></use><use xlink:href="#SvgjsSymbol1001" x="375" y="312.5" fill="#b785ff"></use><use xlink:href="#SvgjsSymbol1002" x="375" y="312.5" fill="#4d2ab2"></use></g><g><use xlink:href="#SvgjsSymbol1000" x="250" y="375" fill="8257e5"></use><use xlink:href="#SvgjsSymbol1001" x="250" y="375" fill="#b785ff"></use><use xlink:href="#SvgjsSymbol1002" x="250" y="375" fill="#4d2ab2"></use></g><g><use xlink:href="#SvgjsSymbol1000" x="137.5" y="387.5" fill="8257e5"></use><use xlink:href="#SvgjsSymbol1001" x="137.5" y="387.5" fill="#b785ff"></use><use xlink:href="#SvgjsSymbol1002" x="137.5" y="387.5" fill="#4d2ab2"></use></g><g><use xlink:href="#SvgjsSymbol1000" x="125" y="362.5" fill="8257e5"></use><use xlink:href="#SvgjsSymbol1001" x="125" y="362.5" fill="#b785ff"></use><use xlink:href="#SvgjsSymbol1002" x="125" y="362.5" fill="#4d2ab2"></use></g><g><use xlink:href="#SvgjsSymbol1000" x="212.5" y="275" fill="8257e5"></use><use xlink:href="#SvgjsSymbol1001" x="212.5" y="275" fill="#b785ff"></use><use xlink:href="#SvgjsSymbol1002" x="212.5" y="275" fill="#4d2ab2"></use></g><g><use xlink:href="#SvgjsSymbol1000" x="275" y="237.5" fill="8257e5"></use><use xlink:href="#SvgjsSymbol1001" x="275" y="237.5" fill="#b785ff"></use><use xlink:href="#SvgjsSymbol1002" x="275" y="237.5" fill="#4d2ab2"></use></g><g><use xlink:href="#SvgjsSymbol1000" x="325" y="237.5" fill="8257e5"></use><use xlink:href="#SvgjsSymbol1001" x="325" y="237.5" fill="#b785ff"></use><use xlink:href="#SvgjsSymbol1002" x="325" y="237.5" fill="#4d2ab2"></use></g><g><use xlink:href="#SvgjsSymbol1000" x="362.5" y="237.5" fill="8257e5"></use><use xlink:href="#SvgjsSymbol1001" x="362.5" y="237.5" fill="#b785ff"></use><use xlink:href="#SvgjsSymbol1002" x="362.5" y="237.5" fill="#4d2ab2"></use></g><g><use xlink:href="#SvgjsSymbol1000" x="412.5" y="250" fill="8257e5"></use><use xlink:href="#SvgjsSymbol1001" x="412.5" y="250" fill="#b785ff"></use><use xlink:href="#SvgjsSymbol1002" x="412.5" y="250" fill="#4d2ab2"></use></g><g><use xlink:href="#SvgjsSymbol1000" x="462.5" y="237.5" fill="8257e5"></use><use xlink:href="#SvgjsSymbol1001" x="462.5" y="237.5" fill="#b785ff"></use><use xlink:href="#SvgjsSymbol1002" x="462.5" y="237.5" fill="#4d2ab2"></use></g><g><use xlink:href="#SvgjsSymbol1000" x="487.5" y="200" fill="8257e5"></use><use xlink:href="#SvgjsSymbol1001" x="487.5" y="200" fill="#b785ff"></use><use xlink:href="#SvgjsSymbol1002" x="487.5" y="200" fill="#4d2ab2"></use></g><g><use xlink:href="#SvgjsSymbol1000" x="462.5" y="175" fill="8257e5"></use><use xlink:href="#SvgjsSymbol1001" x="462.5" y="175" fill="#b785ff"></use><use xlink:href="#SvgjsSymbol1002" x="462.5" y="175" fill="#4d2ab2"></use></g><g><use xlink:href="#SvgjsSymbol1000" x="325" y="162.5" fill="8257e5"></use><use xlink:href="#SvgjsSymbol1001" x="325" y="162.5" fill="#b785ff"></use><use xlink:href="#SvgjsSymbol1002" x="325" y="162.5" fill="#4d2ab2"></use></g><g><use xlink:href="#SvgjsSymbol1000" x="237.5" y="175" fill="8257e5"></use><use xlink:href="#SvgjsSymbol1001" x="237.5" y="175" fill="#b785ff"></use><use xlink:href="#SvgjsSymbol1002" x="237.5" y="175" fill="#4d2ab2"></use></g><g><use xlink:href="#SvgjsSymbol1000" x="187.5" y="187.5" fill="8257e5"></use><use xlink:href="#SvgjsSymbol1001" x="187.5" y="187.5" fill="#b785ff"></use><use xlink:href="#SvgjsSymbol1002" x="187.5" y="187.5" fill="#4d2ab2"></use></g><g><use xlink:href="#SvgjsSymbol1000" x="662.5" y="375" fill="8257e5"></use><use xlink:href="#SvgjsSymbol1001" x="662.5" y="375" fill="#b785ff"></use><use xlink:href="#SvgjsSymbol1002" x="662.5" y="375" fill="#4d2ab2"></use></g><g><use xlink:href="#SvgjsSymbol1000" x="262.5" y="600" fill="8257e5"></use><use xlink:href="#SvgjsSymbol1001" x="262.5" y="600" fill="#b785ff"></use><use xlink:href="#SvgjsSymbol1002" x="262.5" y="600" fill="#4d2ab2"></use></g><g><use xlink:href="#SvgjsSymbol1000" x="225" y="587.5" fill="8257e5"></use><use xlink:href="#SvgjsSymbol1001" x="225" y="587.5" fill="#b785ff"></use><use xlink:href="#SvgjsSymbol1002" x="225" y="587.5" fill="#4d2ab2"></use></g><g><use xlink:href="#SvgjsSymbol1000" x="150" y="600" fill="8257e5"></use><use xlink:href="#SvgjsSymbol1001" x="150" y="600" fill="#b785ff"></use><use xlink:href="#SvgjsSymbol1002" x="150" y="600" fill="#4d2ab2"></use></g><g><use xlink:href="#SvgjsSymbol1000" x="125" y="625" fill="8257e5"></use><use xlink:href="#SvgjsSymbol1001" x="125" y="625" fill="#b785ff"></use><use xlink:href="#SvgjsSymbol1002" x="125" y="625" fill="#4d2ab2"></use></g><g><use xlink:href="#SvgjsSymbol1000" x="112.5" y="612.5" fill="8257e5"></use><use xlink:href="#SvgjsSymbol1001" x="112.5" y="612.5" fill="#b785ff"></use><use xlink:href="#SvgjsSymbol1002" x="112.5" y="612.5" fill="#4d2ab2"></use></g><g><use xlink:href="#SvgjsSymbol1000" x="62.5" y="562.5" fill="8257e5"></use><use xlink:href="#SvgjsSymbol1001" x="62.5" y="562.5" fill="#b785ff"></use><use xlink:href="#SvgjsSymbol1002" x="62.5" y="562.5" fill="#4d2ab2"></use></g><g><use xlink:href="#SvgjsSymbol1000" x="75" y="537.5" fill="8257e5"></use><use xlink:href="#SvgjsSymbol1001" x="75" y="537.5" fill="#b785ff"></use><use xlink:href="#SvgjsSymbol1002" x="75" y="537.5" fill="#4d2ab2"></use></g><g><use xlink:href="#SvgjsSymbol1000" x="112.5" y="525" fill="8257e5"></use><use xlink:href="#SvgjsSymbol1001" x="112.5" y="525" fill="#b785ff"></use><use xlink:href="#SvgjsSymbol1002" x="112.5" y="525" fill="#4d2ab2"></use></g><g><use xlink:href="#SvgjsSymbol1000" x="200" y="550" fill="8257e5"></use><use xlink:href="#SvgjsSymbol1001" x="200" y="550" fill="#b785ff"></use><use xlink:href="#SvgjsSymbol1002" x="200" y="550" fill="#4d2ab2"></use></g><g><use xlink:href="#SvgjsSymbol1000" x="250" y="587.5" fill="8257e5"></use><use xlink:href="#SvgjsSymbol1001" x="250" y="587.5" fill="#b785ff"></use><use xlink:href="#SvgjsSymbol1002" x="250" y="587.5" fill="#4d2ab2"></use></g><g><use xlink:href="#SvgjsSymbol1000" x="362.5" y="600" fill="8257e5"></use><use xlink:href="#SvgjsSymbol1001" x="362.5" y="600" fill="#b785ff"></use><use xlink:href="#SvgjsSymbol1002" x="362.5" y="600" fill="#4d2ab2"></use></g><g><use xlink:href="#SvgjsSymbol1000" x="425" y="612.5" fill="8257e5"></use><use xlink:href="#SvgjsSymbol1001" x="425" y="612.5" fill="#b785ff"></use><use xlink:href="#SvgjsSymbol1002" x="425" y="612.5" fill="#4d2ab2"></use></g><g><use xlink:href="#SvgjsSymbol1000" x="512.5" y="600" fill="8257e5"></use><use xlink:href="#SvgjsSymbol1001" x="512.5" y="600" fill="#b785ff"></use><use xlink:href="#SvgjsSymbol1002" x="512.5" y="600" fill="#4d2ab2"></use></g><g><use xlink:href="#SvgjsSymbol1000" x="562.5" y="612.5" fill="8257e5"></use><use xlink:href="#SvgjsSymbol1001" x="562.5" y="612.5" fill="#b785ff"></use><use xlink:href="#SvgjsSymbol1002" x="562.5" y="612.5" fill="#4d2ab2"></use></g><g><use xlink:href="#SvgjsSymbol1000" x="600" y="612.5" fill="8257e5"></use><use xlink:href="#SvgjsSymbol1001" x="600" y="612.5" fill="#b785ff"></use><use xlink:href="#SvgjsSymbol1002" x="600" y="612.5" fill="#4d2ab2"></use></g><g><use xlink:href="#SvgjsSymbol1000" x="637.5" y="587.5" fill="8257e5"></use><use xlink:href="#SvgjsSymbol1001" x="637.5" y="587.5" fill="#b785ff"></use><use xlink:href="#SvgjsSymbol1002" x="637.5" y="587.5" fill="#4d2ab2"></use></g><g><use xlink:href="#SvgjsSymbol1000" x="650" y="575" fill="8257e5"></use><use xlink:href="#SvgjsSymbol1001" x="650" y="575" fill="#b785ff"></use><use xlink:href="#SvgjsSymbol1002" x="650" y="575" fill="#4d2ab2"></use></g><g><use xlink:href="#SvgjsSymbol1000" x="675" y="500" fill="8257e5"></use><use xlink:href="#SvgjsSymbol1001" x="675" y="500" fill="#b785ff"></use><use xlink:href="#SvgjsSymbol1002" x="675" y="500" fill="#4d2ab2"></use></g><g><use xlink:href="#SvgjsSymbol1000" x="675" y="462.5" fill="8257e5"></use><use xlink:href="#SvgjsSymbol1001" x="675" y="462.5" fill="#b785ff"></use><use xlink:href="#SvgjsSymbol1002" x="675" y="462.5" fill="#4d2ab2"></use></g><g><use xlink:href="#SvgjsSymbol1000" x="687.5" y="462.5" fill="8257e5"></use><use xlink:href="#SvgjsSymbol1001" x="687.5" y="462.5" fill="#b785ff"></use><use xlink:href="#SvgjsSymbol1002" x="687.5" y="462.5" fill="#4d2ab2"></use></g><g><use xlink:href="#SvgjsSymbol1003" x="431.25" y="431.25" fill="8257e5"></use><use xlink:href="#SvgjsSymbol1004" x="431.25" y="431.25" fill="#b785ff"></use><use xlink:href="#SvgjsSymbol1005" x="431.25" y="431.25" fill="#4d2ab2"></use></g><g><use xlink:href="#SvgjsSymbol1003" x="450" y="450" fill="8257e5"></use><use xlink:href="#SvgjsSymbol1004" x="450" y="450" fill="#b785ff"></use><use xlink:href="#SvgjsSymbol1005" x="450" y="450" fill="#4d2ab2"></use></g><g><use xlink:href="#SvgjsSymbol1003" x="506.25" y="506.25" fill="8257e5"></use><use xlink:href="#SvgjsSymbol1004" x="506.25" y="506.25" fill="#b785ff"></use><use xlink:href="#SvgjsSymbol1005" x="506.25" y="506.25" fill="#4d2ab2"></use></g><g><use xlink:href="#SvgjsSymbol1003" x="525" y="600" fill="8257e5"></use><use xlink:href="#SvgjsSymbol1004" x="525" y="600" fill="#b785ff"></use><use xlink:href="#SvgjsSymbol1005" x="525" y="600" fill="#4d2ab2"></use></g><g><use xlink:href="#SvgjsSymbol1003" x="468.75" y="600" fill="8257e5"></use><use xlink:href="#SvgjsSymbol1004" x="468.75" y="600" fill="#b785ff"></use><use xlink:href="#SvgjsSymbol1005" x="468.75" y="600" fill="#4d2ab2"></use></g><g><use xlink:href="#SvgjsSymbol1003" x="262.5" y="543.75" fill="8257e5"></use><use xlink:href="#SvgjsSymbol1004" x="262.5" y="543.75" fill="#b785ff"></use><use xlink:href="#SvgjsSymbol1005" x="262.5" y="543.75" fill="#4d2ab2"></use></g><g><use xlink:href="#SvgjsSymbol1003" x="225" y="506.25" fill="8257e5"></use><use xlink:href="#SvgjsSymbol1004" x="225" y="506.25" fill="#b785ff"></use><use xlink:href="#SvgjsSymbol1005" x="225" y="506.25" fill="#4d2ab2"></use></g><g><use xlink:href="#SvgjsSymbol1003" x="225" y="450" fill="8257e5"></use><use xlink:href="#SvgjsSymbol1004" x="225" y="450" fill="#b785ff"></use><use xlink:href="#SvgjsSymbol1005" x="225" y="450" fill="#4d2ab2"></use></g><g><use xlink:href="#SvgjsSymbol1003" x="225" y="412.5" fill="8257e5"></use><use xlink:href="#SvgjsSymbol1004" x="225" y="412.5" fill="#b785ff"></use><use xlink:href="#SvgjsSymbol1005" x="225" y="412.5" fill="#4d2ab2"></use></g><g><use xlink:href="#SvgjsSymbol1003" x="206.25" y="375" fill="8257e5"></use><use xlink:href="#SvgjsSymbol1004" x="206.25" y="375" fill="#b785ff"></use><use xlink:href="#SvgjsSymbol1005" x="206.25" y="375" fill="#4d2ab2"></use></g><g><use xlink:href="#SvgjsSymbol1003" x="187.5" y="375" fill="8257e5"></use><use xlink:href="#SvgjsSymbol1004" x="187.5" y="375" fill="#b785ff"></use><use xlink:href="#SvgjsSymbol1005" x="187.5" y="375" fill="#4d2ab2"></use></g><g><use xlink:href="#SvgjsSymbol1003" x="150" y="393.75" fill="8257e5"></use><use xlink:href="#SvgjsSymbol1004" x="150" y="393.75" fill="#b785ff"></use><use xlink:href="#SvgjsSymbol1005" x="150" y="393.75" fill="#4d2ab2"></use></g><g><use xlink:href="#SvgjsSymbol1003" x="131.25" y="393.75" fill="8257e5"></use><use xlink:href="#SvgjsSymbol1004" x="131.25" y="393.75" fill="#b785ff"></use><use xlink:href="#SvgjsSymbol1005" x="131.25" y="393.75" fill="#4d2ab2"></use></g><g><use xlink:href="#SvgjsSymbol1003" x="150" y="375" fill="8257e5"></use><use xlink:href="#SvgjsSymbol1004" x="150" y="375" fill="#b785ff"></use><use xlink:href="#SvgjsSymbol1005" x="150" y="375" fill="#4d2ab2"></use></g><g><use xlink:href="#SvgjsSymbol1003" x="187.5" y="300" fill="8257e5"></use><use xlink:href="#SvgjsSymbol1004" x="187.5" y="300" fill="#b785ff"></use><use xlink:href="#SvgjsSymbol1005" x="187.5" y="300" fill="#4d2ab2"></use></g><g><use xlink:href="#SvgjsSymbol1003" x="262.5" y="281.25" fill="8257e5"></use><use xlink:href="#SvgjsSymbol1004" x="262.5" y="281.25" fill="#b785ff"></use><use xlink:href="#SvgjsSymbol1005" x="262.5" y="281.25" fill="#4d2ab2"></use></g><g><use xlink:href="#SvgjsSymbol1003" x="337.5" y="262.5" fill="8257e5"></use><use xlink:href="#SvgjsSymbol1004" x="337.5" y="262.5" fill="#b785ff"></use><use xlink:href="#SvgjsSymbol1005" x="337.5" y="262.5" fill="#4d2ab2"></use></g><g><use xlink:href="#SvgjsSymbol1003" x="431.25" y="262.5" fill="8257e5"></use><use xlink:href="#SvgjsSymbol1004" x="431.25" y="262.5" fill="#b785ff"></use><use xlink:href="#SvgjsSymbol1005" x="431.25" y="262.5" fill="#4d2ab2"></use></g><g><use xlink:href="#SvgjsSymbol1003" x="393.75" y="243.75" fill="8257e5"></use><use xlink:href="#SvgjsSymbol1004" x="393.75" y="243.75" fill="#b785ff"></use><use xlink:href="#SvgjsSymbol1005" x="393.75" y="243.75" fill="#4d2ab2"></use></g><g><use xlink:href="#SvgjsSymbol1003" x="300" y="225" fill="8257e5"></use><use xlink:href="#SvgjsSymbol1004" x="300" y="225" fill="#b785ff"></use><use xlink:href="#SvgjsSymbol1005" x="300" y="225" fill="#4d2ab2"></use></g><g><use xlink:href="#SvgjsSymbol1003" x="206.25" y="206.25" fill="8257e5"></use><use xlink:href="#SvgjsSymbol1004" x="206.25" y="206.25" fill="#b785ff"></use><use xlink:href="#SvgjsSymbol1005" x="206.25" y="206.25" fill="#4d2ab2"></use></g><g><use xlink:href="#SvgjsSymbol1003" x="206.25" y="206.25" fill="8257e5"></use><use xlink:href="#SvgjsSymbol1004" x="206.25" y="206.25" fill="#b785ff"></use><use xlink:href="#SvgjsSymbol1005" x="206.25" y="206.25" fill="#4d2ab2"></use></g><g><use xlink:href="#SvgjsSymbol1003" x="168.75" y="206.25" fill="8257e5"></use><use xlink:href="#SvgjsSymbol1004" x="168.75" y="206.25" fill="#b785ff"></use><use xlink:href="#SvgjsSymbol1005" x="168.75" y="206.25" fill="#4d2ab2"></use></g><g><use xlink:href="#SvgjsSymbol1003" x="150" y="187.5" fill="8257e5"></use><use xlink:href="#SvgjsSymbol1004" x="150" y="187.5" fill="#b785ff"></use><use xlink:href="#SvgjsSymbol1005" x="150" y="187.5" fill="#4d2ab2"></use></g><g><use xlink:href="#SvgjsSymbol1003" x="300" y="150" fill="8257e5"></use><use xlink:href="#SvgjsSymbol1004" x="300" y="150" fill="#b785ff"></use><use xlink:href="#SvgjsSymbol1005" x="300" y="150" fill="#4d2ab2"></use></g><g><use xlink:href="#SvgjsSymbol1003" x="431.25" y="150" fill="8257e5"></use><use xlink:href="#SvgjsSymbol1004" x="431.25" y="150" fill="#b785ff"></use><use xlink:href="#SvgjsSymbol1005" x="431.25" y="150" fill="#4d2ab2"></use></g><g><use xlink:href="#SvgjsSymbol1003" x="506.25" y="187.5" fill="8257e5"></use><use xlink:href="#SvgjsSymbol1004" x="506.25" y="187.5" fill="#b785ff"></use><use xlink:href="#SvgjsSymbol1005" x="506.25" y="187.5" fill="#4d2ab2"></use></g><g><use xlink:href="#SvgjsSymbol1003" x="581.25" y="300" fill="8257e5"></use><use xlink:href="#SvgjsSymbol1004" x="581.25" y="300" fill="#b785ff"></use><use xlink:href="#SvgjsSymbol1005" x="581.25" y="300" fill="#4d2ab2"></use></g><g><use xlink:href="#SvgjsSymbol1003" x="581.25" y="412.5" fill="8257e5"></use><use xlink:href="#SvgjsSymbol1004" x="581.25" y="412.5" fill="#b785ff"></use><use xlink:href="#SvgjsSymbol1005" x="581.25" y="412.5" fill="#4d2ab2"></use></g><g><use xlink:href="#SvgjsSymbol1003" x="337.5" y="393.75" fill="8257e5"></use><use xlink:href="#SvgjsSymbol1004" x="337.5" y="393.75" fill="#b785ff"></use><use xlink:href="#SvgjsSymbol1005" x="337.5" y="393.75" fill="#4d2ab2"></use></g><g><use xlink:href="#SvgjsSymbol1003" x="318.75" y="375" fill="8257e5"></use><use xlink:href="#SvgjsSymbol1004" x="318.75" y="375" fill="#b785ff"></use><use xlink:href="#SvgjsSymbol1005" x="318.75" y="375" fill="#4d2ab2"></use></g><g><use xlink:href="#SvgjsSymbol1003" x="412.5" y="356.25" fill="8257e5"></use><use xlink:href="#SvgjsSymbol1004" x="412.5" y="356.25" fill="#b785ff"></use><use xlink:href="#SvgjsSymbol1005" x="412.5" y="356.25" fill="#4d2ab2"></use></g><g><use xlink:href="#SvgjsSymbol1003" x="487.5" y="356.25" fill="8257e5"></use><use xlink:href="#SvgjsSymbol1004" x="487.5" y="356.25" fill="#b785ff"></use><use xlink:href="#SvgjsSymbol1005" x="487.5" y="356.25" fill="#4d2ab2"></use></g></g><symbol id="SvgjsSymbol1000"><polygon points="0,12.5 25,0 50,12.5 25,25"></polygon></symbol><symbol id="SvgjsSymbol1001"><polygon points="0,12.5 25,25 25,50 0,37.5"></polygon></symbol><symbol id="SvgjsSymbol1002"><polygon points="25,25 50,12.5 50,37.5 25,50"></polygon></symbol><g></g><symbol id="SvgjsSymbol1003"><polygon points="0,18.75 37.5,0 75,18.75 37.5,37.5"></polygon></symbol><symbol id="SvgjsSymbol1004"><polygon points="0,18.75 37.5,37.5 37.5,75 0,56.25"></polygon></symbol><symbol id="SvgjsSymbol1005"><polygon points="37.5,37.5 75,18.75 75,56.25 37.5,75"></polygon></symbol></svg>