<svg xmlns="http://www.w3.org/2000/svg" version="1.1" xmlns:xlink="http://www.w3.org/1999/xlink" xmlns:svgjs="http://svgjs.dev/svgjs" viewBox="0 0 800 800"><g shape-rendering="crispEdges"><g><use xlink:href="#SvgjsSymbol1000" x="325" y="425" fill="8257e5"></use><use xlink:href="#SvgjsSymbol1001" x="325" y="425" fill="#b785ff"></use><use xlink:href="#SvgjsSymbol1002" x="325" y="425" fill="#4d2ab2"></use></g><g><use xlink:href="#SvgjsSymbol1000" x="325" y="387.5" fill="8257e5"></use><use xlink:href="#SvgjsSymbol1001" x="325" y="387.5" fill="#b785ff"></use><use xlink:href="#SvgjsSymbol1002" x="325" y="387.5" fill="#4d2ab2"></use></g><g><use xlink:href="#SvgjsSymbol1000" x="337.5" y="362.5" fill="8257e5"></use><use xlink:href="#SvgjsSymbol1001" x="337.5" y="362.5" fill="#b785ff"></use><use xlink:href="#SvgjsSymbol1002" x="337.5" y="362.5" fill="#4d2ab2"></use></g><g><use xlink:href="#SvgjsSymbol1000" x="375" y="300" fill="8257e5"></use><use xlink:href="#SvgjsSymbol1001" x="375" y="300" fill="#b785ff"></use><use xlink:href="#SvgjsSymbol1002" x="375" y="300" fill="#4d2ab2"></use></g><g><use xlink:href="#SvgjsSymbol1000" x="262.5" y="262.5" fill="8257e5"></use><use xlink:href="#SvgjsSymbol1001" x="262.5" y="262.5" fill="#b785ff"></use><use xlink:href="#SvgjsSymbol1002" x="262.5" y="262.5" fill="#4d2ab2"></use></g><g><use xlink:href="#SvgjsSymbol1000" x="150" y="287.5" fill="8257e5"></use><use xlink:href="#SvgjsSymbol1001" x="150" y="287.5" fill="#b785ff"></use><use xlink:href="#SvgjsSymbol1002" x="150" y="287.5" fill="#4d2ab2"></use></g><g><use xlink:href="#SvgjsSymbol1000" x="162.5" y="387.5" fill="8257e5"></use><use xlink:href="#SvgjsSymbol1001" x="162.5" y="387.5" fill="#b785ff"></use><use xlink:href="#SvgjsSymbol1002" x="162.5" y="387.5" fill="#4d2ab2"></use></g><g><use xlink:href="#SvgjsSymbol1000" x="62.5" y="500" fill="8257e5"></use><use xlink:href="#SvgjsSymbol1001" x="62.5" y="500" fill="#b785ff"></use><use xlink:href="#SvgjsSymbol1002" x="62.5" y="500" fill="#4d2ab2"></use></g><g><use xlink:href="#SvgjsSymbol1000" x="75" y="262.5" fill="8257e5"></use><use xlink:href="#SvgjsSymbol1001" x="75" y="262.5" fill="#b785ff"></use><use xlink:href="#SvgjsSymbol1002" x="75" y="262.5" fill="#4d2ab2"></use></g><g><use xlink:href="#SvgjsSymbol1000" x="262.5" y="212.5" fill="8257e5"></use><use xlink:href="#SvgjsSymbol1001" x="262.5" y="212.5" fill="#b785ff"></use><use xlink:href="#SvgjsSymbol1002" x="262.5" y="212.5" fill="#4d2ab2"></use></g><g><use xlink:href="#SvgjsSymbol1000" x="462.5" y="300" fill="8257e5"></use><use xlink:href="#SvgjsSymbol1001" x="462.5" y="300" fill="#b785ff"></use><use xlink:href="#SvgjsSymbol1002" x="462.5" y="300" fill="#4d2ab2"></use></g><g><use xlink:href="#SvgjsSymbol1000" x="550" y="475" fill="8257e5"></use><use xlink:href="#SvgjsSymbol1001" x="550" y="475" fill="#b785ff"></use><use xlink:href="#SvgjsSymbol1002" x="550" y="475" fill="#4d2ab2"></use></g><g><use xlink:href="#SvgjsSymbol1000" x="662.5" y="325" fill="8257e5"></use><use xlink:href="#SvgjsSymbol1001" x="662.5" y="325" fill="#b785ff"></use><use xlink:href="#SvgjsSymbol1002" x="662.5" y="325" fill="#4d2ab2"></use></g><g><use xlink:href="#SvgjsSymbol1000" x="600" y="275" fill="8257e5"></use><use xlink:href="#SvgjsSymbol1001" x="600" y="275" fill="#b785ff"></use><use xlink:href="#SvgjsSymbol1002" x="600" y="275" fill="#4d2ab2"></use></g><g><use xlink:href="#SvgjsSymbol1000" x="562.5" y="237.5" fill="8257e5"></use><use xlink:href="#SvgjsSymbol1001" x="562.5" y="237.5" fill="#b785ff"></use><use xlink:href="#SvgjsSymbol1002" x="562.5" y="237.5" fill="#4d2ab2"></use></g><g><use xlink:href="#SvgjsSymbol1000" x="437.5" y="287.5" fill="8257e5"></use><use xlink:href="#SvgjsSymbol1001" x="437.5" y="287.5" fill="#b785ff"></use><use xlink:href="#SvgjsSymbol1002" x="437.5" y="287.5" fill="#4d2ab2"></use></g><g><use xlink:href="#SvgjsSymbol1000" x="437.5" y="400" fill="8257e5"></use><use xlink:href="#SvgjsSymbol1001" x="437.5" y="400" fill="#b785ff"></use><use xlink:href="#SvgjsSymbol1002" x="437.5" y="400" fill="#4d2ab2"></use></g><g><use xlink:href="#SvgjsSymbol1000" x="312.5" y="425" fill="8257e5"></use><use xlink:href="#SvgjsSymbol1001" x="312.5" y="425" fill="#b785ff"></use><use xlink:href="#SvgjsSymbol1002" x="312.5" y="425" fill="#4d2ab2"></use></g><g><use xlink:href="#SvgjsSymbol1000" x="250" y="387.5" fill="8257e5"></use><use xlink:href="#SvgjsSymbol1001" x="250" y="387.5" fill="#b785ff"></use><use xlink:href="#SvgjsSymbol1002" x="250" y="387.5" fill="#4d2ab2"></use></g><g><use xlink:href="#SvgjsSymbol1000" x="200" y="337.5" fill="8257e5"></use><use xlink:href="#SvgjsSymbol1001" x="200" y="337.5" fill="#b785ff"></use><use xlink:href="#SvgjsSymbol1002" x="200" y="337.5" fill="#4d2ab2"></use></g><g><use xlink:href="#SvgjsSymbol1000" x="175" y="287.5" fill="8257e5"></use><use xlink:href="#SvgjsSymbol1001" x="175" y="287.5" fill="#b785ff"></use><use xlink:href="#SvgjsSymbol1002" x="175" y="287.5" fill="#4d2ab2"></use></g><g><use xlink:href="#SvgjsSymbol1000" x="200" y="225" fill="8257e5"></use><use xlink:href="#SvgjsSymbol1001" x="200" y="225" fill="#b785ff"></use><use xlink:href="#SvgjsSymbol1002" x="200" y="225" fill="#4d2ab2"></use></g><g><use xlink:href="#SvgjsSymbol1000" x="237.5" y="162.5" fill="8257e5"></use><use xlink:href="#SvgjsSymbol1001" x="237.5" y="162.5" fill="#b785ff"></use><use xlink:href="#SvgjsSymbol1002" x="237.5" y="162.5" fill="#4d2ab2"></use></g><g><use xlink:href="#SvgjsSymbol1000" x="287.5" y="100" fill="8257e5"></use><use xlink:href="#SvgjsSymbol1001" x="287.5" y="100" fill="#b785ff"></use><use xlink:href="#SvgjsSymbol1002" x="287.5" y="100" fill="#4d2ab2"></use></g><g><use xlink:href="#SvgjsSymbol1000" x="337.5" y="87.5" fill="8257e5"></use><use xlink:href="#SvgjsSymbol1001" x="337.5" y="87.5" fill="#b785ff"></use><use xlink:href="#SvgjsSymbol1002" x="337.5" y="87.5" fill="#4d2ab2"></use></g><g><use xlink:href="#SvgjsSymbol1000" x="412.5" y="87.5" fill="8257e5"></use><use xlink:href="#SvgjsSymbol1001" x="412.5" y="87.5" fill="#b785ff"></use><use xlink:href="#SvgjsSymbol1002" x="412.5" y="87.5" fill="#4d2ab2"></use></g><g><use xlink:href="#SvgjsSymbol1000" x="537.5" y="175" fill="8257e5"></use><use xlink:href="#SvgjsSymbol1001" x="537.5" y="175" fill="#b785ff"></use><use xlink:href="#SvgjsSymbol1002" x="537.5" y="175" fill="#4d2ab2"></use></g><g><use xlink:href="#SvgjsSymbol1000" x="600" y="262.5" fill="8257e5"></use><use xlink:href="#SvgjsSymbol1001" x="600" y="262.5" fill="#b785ff"></use><use xlink:href="#SvgjsSymbol1002" x="600" y="262.5" fill="#4d2ab2"></use></g><g><use xlink:href="#SvgjsSymbol1000" x="662.5" y="362.5" fill="8257e5"></use><use xlink:href="#SvgjsSymbol1001" x="662.5" y="362.5" fill="#b785ff"></use><use xlink:href="#SvgjsSymbol1002" x="662.5" y="362.5" fill="#4d2ab2"></use></g><g><use xlink:href="#SvgjsSymbol1000" x="675" y="437.5" fill="8257e5"></use><use xlink:href="#SvgjsSymbol1001" x="675" y="437.5" fill="#b785ff"></use><use xlink:href="#SvgjsSymbol1002" x="675" y="437.5" fill="#4d2ab2"></use></g><g><use xlink:href="#SvgjsSymbol1000" x="612.5" y="512.5" fill="8257e5"></use><use xlink:href="#SvgjsSymbol1001" x="612.5" y="512.5" fill="#b785ff"></use><use xlink:href="#SvgjsSymbol1002" x="612.5" y="512.5" fill="#4d2ab2"></use></g><g><use xlink:href="#SvgjsSymbol1000" x="450" y="575" fill="8257e5"></use><use xlink:href="#SvgjsSymbol1001" x="450" y="575" fill="#b785ff"></use><use xlink:href="#SvgjsSymbol1002" x="450" y="575" fill="#4d2ab2"></use></g><g><use xlink:href="#SvgjsSymbol1000" x="300" y="562.5" fill="8257e5"></use><use xlink:href="#SvgjsSymbol1001" x="300" y="562.5" fill="#b785ff"></use><use xlink:href="#SvgjsSymbol1002" x="300" y="562.5" fill="#4d2ab2"></use></g><g><use xlink:href="#SvgjsSymbol1000" x="212.5" y="550" fill="8257e5"></use><use xlink:href="#SvgjsSymbol1001" x="212.5" y="550" fill="#b785ff"></use><use xlink:href="#SvgjsSymbol1002" x="212.5" y="550" fill="#4d2ab2"></use></g><g><use xlink:href="#SvgjsSymbol1000" x="100" y="562.5" fill="8257e5"></use><use xlink:href="#SvgjsSymbol1001" x="100" y="562.5" fill="#b785ff"></use><use xlink:href="#SvgjsSymbol1002" x="100" y="562.5" fill="#4d2ab2"></use></g><g><use xlink:href="#SvgjsSymbol1000" x="212.5" y="425" fill="8257e5"></use><use xlink:href="#SvgjsSymbol1001" x="212.5" y="425" fill="#b785ff"></use><use xlink:href="#SvgjsSymbol1002" x="212.5" y="425" fill="#4d2ab2"></use></g><g><use xlink:href="#SvgjsSymbol1000" x="237.5" y="412.5" fill="8257e5"></use><use xlink:href="#SvgjsSymbol1001" x="237.5" y="412.5" fill="#b785ff"></use><use xlink:href="#SvgjsSymbol1002" x="237.5" y="412.5" fill="#4d2ab2"></use></g><g><use xlink:href="#SvgjsSymbol1000" x="312.5" y="412.5" fill="8257e5"></use><use xlink:href="#SvgjsSymbol1001" x="312.5" y="412.5" fill="#b785ff"></use><use xlink:href="#SvgjsSymbol1002" x="312.5" y="412.5" fill="#4d2ab2"></use></g><g><use xlink:href="#SvgjsSymbol1000" x="412.5" y="450" fill="8257e5"></use><use xlink:href="#SvgjsSymbol1001" x="412.5" y="450" fill="#b785ff"></use><use xlink:href="#SvgjsSymbol1002" x="412.5" y="450" fill="#4d2ab2"></use></g><g><use xlink:href="#SvgjsSymbol1000" x="500" y="475" fill="8257e5"></use><use xlink:href="#SvgjsSymbol1001" x="500" y="475" fill="#b785ff"></use><use xlink:href="#SvgjsSymbol1002" x="500" y="475" fill="#4d2ab2"></use></g><g><use xlink:href="#SvgjsSymbol1000" x="537.5" y="412.5" fill="8257e5"></use><use xlink:href="#SvgjsSymbol1001" x="537.5" y="412.5" fill="#b785ff"></use><use xlink:href="#SvgjsSymbol1002" x="537.5" y="412.5" fill="#4d2ab2"></use></g><g><use xlink:href="#SvgjsSymbol1000" x="487.5" y="312.5" fill="8257e5"></use><use xlink:href="#SvgjsSymbol1001" x="487.5" y="312.5" fill="#b785ff"></use><use xlink:href="#SvgjsSymbol1002" x="487.5" y="312.5" fill="#4d2ab2"></use></g><g><use xlink:href="#SvgjsSymbol1000" x="425" y="287.5" fill="8257e5"></use><use xlink:href="#SvgjsSymbol1001" x="425" y="287.5" fill="#b785ff"></use><use xlink:href="#SvgjsSymbol1002" x="425" y="287.5" fill="#4d2ab2"></use></g><g><use xlink:href="#SvgjsSymbol1000" x="375" y="312.5" fill="8257e5"></use><use xlink:href="#SvgjsSymbol1001" x="375" y="312.5" fill="#b785ff"></use><use xlink:href="#SvgjsSymbol1002" x="375" y="312.5" fill="#4d2ab2"></use></g><g><use xlink:href="#SvgjsSymbol1000" x="250" y="375" fill="8257e5"></use><use xlink:href="#SvgjsSymbol1001" x="250" y="375" fill="#b785ff"></use><use xlink:href="#SvgjsSymbol1002" x="250" y="375" fill="#4d2ab2"></use></g><g><use xlink:href="#SvgjsSymbol1000" x="137.5" y="387.5" fill="8257e5"></use><use xlink:href="#SvgjsSymbol1001" x="137.5" y="387.5" fill="#b785ff"></use><use xlink:href="#SvgjsSymbol1002" x="137.5" y="387.5" fill="#4d2ab2"></use></g><g><use xlink:href="#SvgjsSymbol1000" x="125" y="362.5" fill="8257e5"></use><use xlink:href="#SvgjsSymbol1001" x="125" y="362.5" fill="#b785ff"></use><use xlink:href="#SvgjsSymbol1002" x="125" y="362.5" fill="#4d2ab2"></use></g><g><use xlink:href="#SvgjsSymbol1000" x="212.5" y="275" fill="8257e5"></use><use xlink:href="#SvgjsSymbol1001" x="212.5" y="275" fill="#b785ff"></use><use xlink:href="#SvgjsSymbol1002" x="212.5" y="275" fill="#4d2ab2"></use></g><g><use xlink:href="#SvgjsSymbol1000" x="275" y="237.5" fill="8257e5"></use><use xlink:href="#SvgjsSymbol1001" x="275" y="237.5" fill="#b785ff"></use><use xlink:href="#SvgjsSymbol1002" x="275" y="237.5" fill="#4d2ab2"></use></g><g><use xlink:href="#SvgjsSymbol1000" x="325" y="237.5" fill="8257e5"></use><use xlink:href="#SvgjsSymbol1001" x="325" y="237.5" fill="#b785ff"></use><use xlink:href="#SvgjsSymbol1002" x="325" y="237.5" fill="#4d2ab2"></use></g><g><use xlink:href="#SvgjsSymbol1000" x="362.5" y="237.5" fill="8257e5"></use><use xlink:href="#SvgjsSymbol1001" x="362.5" y="237.5" fill="#b785ff"></use><use xlink:href="#SvgjsSymbol1002" x="362.5" y="237.5" fill="#4d2ab2"></use></g><g><use xlink:href="#SvgjsSymbol1000" x="412.5" y="250" fill="8257e5"></use><use xlink:href="#SvgjsSymbol1001" x="412.5" y="250" fill="#b785ff"></use><use xlink:href="#SvgjsSymbol1002" x="412.5" y="250" fill="#4d2ab2"></use></g><g><use xlink:href="#SvgjsSymbol1000" x="462.5" y="237.5" fill="8257e5"></use><use xlink:href="#SvgjsSymbol1001" x="462.5" y="237.5" fill="#b785ff"></use><use xlink:href="#SvgjsSymbol1002" x="462.5" y="237.5" fill="#4d2ab2"></use></g><g><use xlink:href="#SvgjsSymbol1000" x="487.5" y="200" fill="8257e5"></use><use xlink:href="#SvgjsSymbol1001" x="487.5" y="200" fill="#b785ff"></use><use xlink:href="#SvgjsSymbol1002" x="487.5" y="200" fill="#4d2ab2"></use></g><g><use xlink:href="#SvgjsSymbol1000" x="462.5" y="175" fill="8257e5"></use><use xlink:href="#SvgjsSymbol1001" x="462.5" y="175" fill="#b785ff"></use><use xlink:href="#SvgjsSymbol1002" x="462.5" y="175" fill="#4d2ab2"></use></g><g><use xlink:href="#SvgjsSymbol1000" x="325" y="162.5" fill="8257e5"></use><use xlink:href="#SvgjsSymbol1001" x="325" y="162.5" fill="#b785ff"></use><use xlink:href="#SvgjsSymbol1002" x="325" y="162.5" fill="#4d2ab2"></use></g><g><use xlink:href="#SvgjsSymbol1000" x="237.5" y="175" fill="8257e5"></use><use xlink:href="#SvgjsSymbol1001" x="237.5" y="175" fill="#b785ff"></use><use xlink:href="#SvgjsSymbol1002" x="237.5" y="175" fill="#4d2ab2"></use></g><g><use xlink:href="#SvgjsSymbol1000" x="187.5" y="187.5" fill="8257e5"></use><use xlink:href="#SvgjsSymbol1001" x="187.5" y="187.5" fill="#b785ff"></use><use xlink:href="#SvgjsSymbol1002" x="187.5" y="187.5" fill="#4d2ab2"></use></g><g><use xlink:href="#SvgjsSymbol1000" x="662.5" y="375" fill="8257e5"></use><use xlink:href="#SvgjsSymbol1001" x="662.5" y="375" fill="#b785ff"></use><use xlink:href="#SvgjsSymbol1002" x="662.5" y="375" fill="#4d2ab2"></use></g><g><use xlink:href="#SvgjsSymbol1000" x="262.5" y="600" fill="8257e5"></use><use xlink:href="#SvgjsSymbol1001" x="262.5" y="600" fill="#b785ff"></use><use xlink:href="#SvgjsSymbol1002" x="262.5" y="600" fill="#4d2ab2"></use></g><g><use xlink:href="#SvgjsSymbol1000" x="225" y="587.5" fill="8257e5"></use><use xlink:href="#SvgjsSymbol1001" x="225" y="587.5" fill="#b785ff"></use><use xlink:href="#SvgjsSymbol1002" x="225" y="587.5" fill="#4d2ab2"></use></g><g><use xlink:href="#SvgjsSymbol1000" x="150" y="600" fill="8257e5"></use><use xlink:href="#SvgjsSymbol1001" x="150" y="600" fill="#b785ff"></use><use xlink:href="#SvgjsSymbol1002" x="150" y="600" fill="#4d2ab2"></use></g><g><use xlink:href="#SvgjsSymbol1000" x="125" y="625" fill="8257e5"></use><use xlink:href="#SvgjsSymbol1001" x="125" y="625" fill="#b785ff"></use><use xlink:href="#SvgjsSymbol1002" x="125" y="625" fill="#4d2ab2"></use></g><g><use xlink:href="#SvgjsSymbol1000" x="112.5" y="612.5" fill="8257e5"></use><use xlink:href="#SvgjsSymbol1001" x="112.5" y="612.5" fill="#b785ff"></use><use xlink:href="#SvgjsSymbol1002" x="112.5" y="612.5" fill="#4d2ab2"></use></g><g><use xlink:href="#SvgjsSymbol1000" x="62.5" y="562.5" fill="8257e5"></use><use xlink:href="#SvgjsSymbol1001" x="62.5" y="562.5" fill="#b785ff"></use><use xlink:href="#SvgjsSymbol1002" x="62.5" y="562.5" fill="#4d2ab2"></use></g><g><use xlink:href="#SvgjsSymbol1000" x="75" y="537.5" fill="8257e5"></use><use xlink:href="#SvgjsSymbol1001" x="75" y="537.5" fill="#b785ff"></use><use xlink:href="#SvgjsSymbol1002" x="75" y="537.5" fill="#4d2ab2"></use></g><g><use xlink:href="#SvgjsSymbol1000" x="112.5" y="525" fill="8257e5"></use><use xlink:href="#SvgjsSymbol1001" x="112.5" y="525" fill="#b785ff"></use><use xlink:href="#SvgjsSymbol1002" x="112.5" y="525" fill="#4d2ab2"></use></g><g><use xlink:href="#SvgjsSymbol1000" x="200" y="550" fill="8257e5"></use><use xlink:href="#SvgjsSymbol1001" x="200" y="550" fill="#b785ff"></use><use xlink:href="#SvgjsSymbol1002" x="200" y="550" fill="#4d2ab2"></use></g><g><use xlink:href="#SvgjsSymbol1000" x="250" y="587.5" fill="8257e5"></use><use xlink:href="#SvgjsSymbol1001" x="250" y="587.5" fill="#b785ff"></use><use xlink:href="#SvgjsSymbol1002" x="250" y="587.5" fill="#4d2ab2"></use></g><g><use xlink:href="#SvgjsSymbol1000" x="362.5" y="600" fill="8257e5"></use><use xlink:href="#SvgjsSymbol1001" x="362.5" y="600" fill="#b785ff"></use><use xlink:href="#SvgjsSymbol1002" x="362.5" y="600" fill="#4d2ab2"></use></g><g><use xlink:href="#SvgjsSymbol1000" x="425" y="612.5" fill="8257e5"></use><use xlink:href="#SvgjsSymbol1001" x="425" y="612.5" fill="#b785ff"></use><use xlink:href="#SvgjsSymbol1002" x="425" y="612.5" fill="#4d2ab2"></use></g><g><use xlink:href="#SvgjsSymbol1000" x="512.5" y="600" fill="8257e5"></use><use xlink:href="#SvgjsSymbol1001" x="512.5" y="600" fill="#b785ff"></use><use xlink:href="#SvgjsSymbol1002" x="512.5" y="600" fill="#4d2ab2"></use></g><g><use xlink:href="#SvgjsSymbol1000" x="562.5" y="612.5" fill="8257e5"></use><use xlink:href="#SvgjsSymbol1001" x="562.5" y="612.5" fill="#b785ff"></use><use xlink:href="#SvgjsSymbol1002" x="562.5" y="612.5" fill="#4d2ab2"></use></g><g><use xlink:href="#SvgjsSymbol1000" x="600" y="612.5" fill="8257e5"></use><use xlink:href="#SvgjsSymbol1001" x="600" y="612.5" fill="#b785ff"></use><use xlink:href="#SvgjsSymbol1002" x="600" y="612.5" fill="#4d2ab2"></use></g><g><use xlink:href="#SvgjsSymbol1000" x="637.5" y="587.5" fill="8257e5"></use><use xlink:href="#SvgjsSymbol1001" x="637.5" y="587.5" fill="#b785ff"></use><use xlink:href="#SvgjsSymbol1002" x="637.5" y="587.5" fill="#4d2ab2"></use></g><g><use xlink:href="#SvgjsSymbol1000" x="650" y="575" fill="8257e5"></use><use xlink:href="#SvgjsSymbol1001" x="650" y="575" fill="#b785ff"></use><use xlink:href="#SvgjsSymbol1002" x="650" y="575" fill="#4d2ab2"></use></g><g><use xlink:href="#SvgjsSymbol1003" x="300" y="281.25" fill="#04d361"></use><use xlink:href="#SvgjsSymbol1004" x="300" y="281.25" fill="#62ff91"></use><use xlink:href="#SvgjsSymbol1005" x="300" y="281.25" fill="#00a033"></use></g><g><use xlink:href="#SvgjsSymbol1003" x="393.75" y="131.25" fill="#04d361"></use><use xlink:href="#SvgjsSymbol1004" x="393.75" y="131.25" fill="#62ff91"></use><use xlink:href="#SvgjsSymbol1005" x="393.75" y="131.25" fill="#00a033"></use></g><g><use xlink:href="#SvgjsSymbol1003" x="543.75" y="168.75" fill="#04d361"></use><use xlink:href="#SvgjsSymbol1004" x="543.75" y="168.75" fill="#62ff91"></use><use xlink:href="#SvgjsSymbol1005" x="543.75" y="168.75" fill="#00a033"></use></g><g><use xlink:href="#SvgjsSymbol1003" x="543.75" y="375" fill="#04d361"></use><use xlink:href="#SvgjsSymbol1004" x="543.75" y="375" fill="#62ff91"></use><use xlink:href="#SvgjsSymbol1005" x="543.75" y="375" fill="#00a033"></use></g><g><use xlink:href="#SvgjsSymbol1003" x="525" y="487.5" fill="#04d361"></use><use xlink:href="#SvgjsSymbol1004" x="525" y="487.5" fill="#62ff91"></use><use xlink:href="#SvgjsSymbol1005" x="525" y="487.5" fill="#00a033"></use></g><g><use xlink:href="#SvgjsSymbol1003" x="206.25" y="450" fill="#04d361"></use><use xlink:href="#SvgjsSymbol1004" x="206.25" y="450" fill="#62ff91"></use><use xlink:href="#SvgjsSymbol1005" x="206.25" y="450" fill="#00a033"></use></g><g><use xlink:href="#SvgjsSymbol1006" x="437.5" y="550" fill="#04d361"></use><use xlink:href="#SvgjsSymbol1007" x="437.5" y="550" fill="#62ff91"></use><use xlink:href="#SvgjsSymbol1008" x="437.5" y="550" fill="#00a033"></use></g><g><use xlink:href="#SvgjsSymbol1006" x="350" y="425" fill="#04d361"></use><use xlink:href="#SvgjsSymbol1007" x="350" y="425" fill="#62ff91"></use><use xlink:href="#SvgjsSymbol1008" x="350" y="425" fill="#00a033"></use></g><g><use xlink:href="#SvgjsSymbol1006" x="187.5" y="300" fill="#04d361"></use><use xlink:href="#SvgjsSymbol1007" x="187.5" y="300" fill="#62ff91"></use><use xlink:href="#SvgjsSymbol1008" x="187.5" y="300" fill="#00a033"></use></g><g><use xlink:href="#SvgjsSymbol1006" x="237.5" y="212.5" fill="#04d361"></use><use xlink:href="#SvgjsSymbol1007" x="237.5" y="212.5" fill="#62ff91"></use><use xlink:href="#SvgjsSymbol1008" x="237.5" y="212.5" fill="#00a033"></use></g><g><use xlink:href="#SvgjsSymbol1006" x="350" y="187.5" fill="#04d361"></use><use xlink:href="#SvgjsSymbol1007" x="350" y="187.5" fill="#62ff91"></use><use xlink:href="#SvgjsSymbol1008" x="350" y="187.5" fill="#00a033"></use></g><g><use xlink:href="#SvgjsSymbol1006" x="500" y="312.5" fill="#04d361"></use><use xlink:href="#SvgjsSymbol1007" x="500" y="312.5" fill="#62ff91"></use><use xlink:href="#SvgjsSymbol1008" x="500" y="312.5" fill="#00a033"></use></g><g><use xlink:href="#SvgjsSymbol1006" x="650" y="412.5" fill="#04d361"></use><use xlink:href="#SvgjsSymbol1007" x="650" y="412.5" fill="#62ff91"></use><use xlink:href="#SvgjsSymbol1008" x="650" y="412.5" fill="#00a033"></use></g><g><use xlink:href="#SvgjsSymbol1006" x="675" y="387.5" fill="#04d361"></use><use xlink:href="#SvgjsSymbol1007" x="675" y="387.5" fill="#62ff91"></use><use xlink:href="#SvgjsSymbol1008" x="675" y="387.5" fill="#00a033"></use></g><g><use xlink:href="#SvgjsSymbol1006" x="687.5" y="350" fill="#04d361"></use><use xlink:href="#SvgjsSymbol1007" x="687.5" y="350" fill="#62ff91"></use><use xlink:href="#SvgjsSymbol1008" x="687.5" y="350" fill="#00a033"></use></g><g><use xlink:href="#SvgjsSymbol1006" x="687.5" y="312.5" fill="#04d361"></use><use xlink:href="#SvgjsSymbol1007" x="687.5" y="312.5" fill="#62ff91"></use><use xlink:href="#SvgjsSymbol1008" x="687.5" y="312.5" fill="#00a033"></use></g><g><use xlink:href="#SvgjsSymbol1006" x="675" y="287.5" fill="#04d361"></use><use xlink:href="#SvgjsSymbol1007" x="675" y="287.5" fill="#62ff91"></use><use xlink:href="#SvgjsSymbol1008" x="675" y="287.5" fill="#00a033"></use></g><g><use xlink:href="#SvgjsSymbol1006" x="650" y="262.5" fill="#04d361"></use><use xlink:href="#SvgjsSymbol1007" x="650" y="262.5" fill="#62ff91"></use><use xlink:href="#SvgjsSymbol1008" x="650" y="262.5" fill="#00a033"></use></g><g><use xlink:href="#SvgjsSymbol1006" x="587.5" y="287.5" fill="#04d361"></use><use xlink:href="#SvgjsSymbol1007" x="587.5" y="287.5" fill="#62ff91"></use><use xlink:href="#SvgjsSymbol1008" x="587.5" y="287.5" fill="#00a033"></use></g><g><use xlink:href="#SvgjsSymbol1006" x="587.5" y="287.5" fill="#04d361"></use><use xlink:href="#SvgjsSymbol1007" x="587.5" y="287.5" fill="#62ff91"></use><use xlink:href="#SvgjsSymbol1008" x="587.5" y="287.5" fill="#00a033"></use></g><g><use xlink:href="#SvgjsSymbol1006" x="400" y="262.5" fill="#04d361"></use><use xlink:href="#SvgjsSymbol1007" x="400" y="262.5" fill="#62ff91"></use><use xlink:href="#SvgjsSymbol1008" x="400" y="262.5" fill="#00a033"></use></g><g><use xlink:href="#SvgjsSymbol1006" x="312.5" y="475" fill="#04d361"></use><use xlink:href="#SvgjsSymbol1007" x="312.5" y="475" fill="#62ff91"></use><use xlink:href="#SvgjsSymbol1008" x="312.5" y="475" fill="#00a033"></use></g><g><use xlink:href="#SvgjsSymbol1006" x="187.5" y="550" fill="#04d361"></use><use xlink:href="#SvgjsSymbol1007" x="187.5" y="550" fill="#62ff91"></use><use xlink:href="#SvgjsSymbol1008" x="187.5" y="550" fill="#00a033"></use></g><g><use xlink:href="#SvgjsSymbol1006" x="175" y="562.5" fill="#04d361"></use><use xlink:href="#SvgjsSymbol1007" x="175" y="562.5" fill="#62ff91"></use><use xlink:href="#SvgjsSymbol1008" x="175" y="562.5" fill="#00a033"></use></g><g><use xlink:href="#SvgjsSymbol1006" x="137.5" y="537.5" fill="#04d361"></use><use xlink:href="#SvgjsSymbol1007" x="137.5" y="537.5" fill="#62ff91"></use><use xlink:href="#SvgjsSymbol1008" x="137.5" y="537.5" fill="#00a033"></use></g><g><use xlink:href="#SvgjsSymbol1006" x="112.5" y="450" fill="#04d361"></use><use xlink:href="#SvgjsSymbol1007" x="112.5" y="450" fill="#62ff91"></use><use xlink:href="#SvgjsSymbol1008" x="112.5" y="450" fill="#00a033"></use></g><g><use xlink:href="#SvgjsSymbol1006" x="162.5" y="375" fill="#04d361"></use><use xlink:href="#SvgjsSymbol1007" x="162.5" y="375" fill="#62ff91"></use><use xlink:href="#SvgjsSymbol1008" x="162.5" y="375" fill="#00a033"></use></g><g><use xlink:href="#SvgjsSymbol1006" x="275" y="337.5" fill="#04d361"></use><use xlink:href="#SvgjsSymbol1007" x="275" y="337.5" fill="#62ff91"></use><use xlink:href="#SvgjsSymbol1008" x="275" y="337.5" fill="#00a033"></use></g><g><use xlink:href="#SvgjsSymbol1006" x="425" y="512.5" fill="#04d361"></use><use xlink:href="#SvgjsSymbol1007" x="425" y="512.5" fill="#62ff91"></use><use xlink:href="#SvgjsSymbol1008" x="425" y="512.5" fill="#00a033"></use></g><g><use xlink:href="#SvgjsSymbol1006" x="525" y="612.5" fill="#04d361"></use><use xlink:href="#SvgjsSymbol1007" x="525" y="612.5" fill="#62ff91"></use><use xlink:href="#SvgjsSymbol1008" x="525" y="612.5" fill="#00a033"></use></g><g><use xlink:href="#SvgjsSymbol1006" x="575" y="612.5" fill="#04d361"></use><use xlink:href="#SvgjsSymbol1007" x="575" y="612.5" fill="#62ff91"></use><use xlink:href="#SvgjsSymbol1008" x="575" y="612.5" fill="#00a033"></use></g><g><use xlink:href="#SvgjsSymbol1006" x="400" y="312.5" fill="#04d361"></use><use xlink:href="#SvgjsSymbol1007" x="400" y="312.5" fill="#62ff91"></use><use xlink:href="#SvgjsSymbol1008" x="400" y="312.5" fill="#00a033"></use></g><g><use xlink:href="#SvgjsSymbol1006" x="262.5" y="250" fill="#04d361"></use><use xlink:href="#SvgjsSymbol1007" x="262.5" y="250" fill="#62ff91"></use><use xlink:href="#SvgjsSymbol1008" x="262.5" y="250" fill="#00a033"></use></g><g><use xlink:href="#SvgjsSymbol1006" x="212.5" y="237.5" fill="#04d361"></use><use xlink:href="#SvgjsSymbol1007" x="212.5" y="237.5" fill="#62ff91"></use><use xlink:href="#SvgjsSymbol1008" x="212.5" y="237.5" fill="#00a033"></use></g><g><use xlink:href="#SvgjsSymbol1006" x="162.5" y="362.5" fill="#04d361"></use><use xlink:href="#SvgjsSymbol1007" x="162.5" y="362.5" fill="#62ff91"></use><use xlink:href="#SvgjsSymbol1008" x="162.5" y="362.5" fill="#00a033"></use></g><g><use xlink:href="#SvgjsSymbol1006" x="200" y="437.5" fill="#04d361"></use><use xlink:href="#SvgjsSymbol1007" x="200" y="437.5" fill="#62ff91"></use><use xlink:href="#SvgjsSymbol1008" x="200" y="437.5" fill="#00a033"></use></g><g><use xlink:href="#SvgjsSymbol1006" x="450" y="337.5" fill="013d1c"></use><use xlink:href="#SvgjsSymbol1007" x="450" y="337.5" fill="#336843"></use><use xlink:href="#SvgjsSymbol1008" x="450" y="337.5" fill="#001900"></use></g><g><use xlink:href="#SvgjsSymbol1006" x="500" y="412.5" fill="013d1c"></use><use xlink:href="#SvgjsSymbol1007" x="500" y="412.5" fill="#336843"></use><use xlink:href="#SvgjsSymbol1008" x="500" y="412.5" fill="#001900"></use></g><g><use xlink:href="#SvgjsSymbol1006" x="512.5" y="412.5" fill="013d1c"></use><use xlink:href="#SvgjsSymbol1007" x="512.5" y="412.5" fill="#336843"></use><use xlink:href="#SvgjsSymbol1008" x="512.5" y="412.5" fill="#001900"></use></g><g><use xlink:href="#SvgjsSymbol1006" x="512.5" y="412.5" fill="013d1c"></use><use xlink:href="#SvgjsSymbol1007" x="512.5" y="412.5" fill="#336843"></use><use xlink:href="#SvgjsSymbol1008" x="512.5" y="412.5" fill="#001900"></use></g><g><use xlink:href="#SvgjsSymbol1006" x="325" y="537.5" fill="013d1c"></use><use xlink:href="#SvgjsSymbol1007" x="325" y="537.5" fill="#336843"></use><use xlink:href="#SvgjsSymbol1008" x="325" y="537.5" fill="#001900"></use></g><g><use xlink:href="#SvgjsSymbol1006" x="262.5" y="525" fill="013d1c"></use><use xlink:href="#SvgjsSymbol1007" x="262.5" y="525" fill="#336843"></use><use xlink:href="#SvgjsSymbol1008" x="262.5" y="525" fill="#001900"></use></g><g><use xlink:href="#SvgjsSymbol1006" x="200" y="487.5" fill="013d1c"></use><use xlink:href="#SvgjsSymbol1007" x="200" y="487.5" fill="#336843"></use><use xlink:href="#SvgjsSymbol1008" x="200" y="487.5" fill="#001900"></use></g><g><use xlink:href="#SvgjsSymbol1006" x="150" y="450" fill="013d1c"></use><use xlink:href="#SvgjsSymbol1007" x="150" y="450" fill="#336843"></use><use xlink:href="#SvgjsSymbol1008" x="150" y="450" fill="#001900"></use></g><g><use xlink:href="#SvgjsSymbol1006" x="125" y="400" fill="013d1c"></use><use xlink:href="#SvgjsSymbol1007" x="125" y="400" fill="#336843"></use><use xlink:href="#SvgjsSymbol1008" x="125" y="400" fill="#001900"></use></g><g><use xlink:href="#SvgjsSymbol1006" x="100" y="275" fill="013d1c"></use><use xlink:href="#SvgjsSymbol1007" x="100" y="275" fill="#336843"></use><use xlink:href="#SvgjsSymbol1008" x="100" y="275" fill="#001900"></use></g><g><use xlink:href="#SvgjsSymbol1006" x="100" y="262.5" fill="013d1c"></use><use xlink:href="#SvgjsSymbol1007" x="100" y="262.5" fill="#336843"></use><use xlink:href="#SvgjsSymbol1008" x="100" y="262.5" fill="#001900"></use></g><g><use xlink:href="#SvgjsSymbol1006" x="125" y="225" fill="013d1c"></use><use xlink:href="#SvgjsSymbol1007" x="125" y="225" fill="#336843"></use><use xlink:href="#SvgjsSymbol1008" x="125" y="225" fill="#001900"></use></g><g><use xlink:href="#SvgjsSymbol1006" x="212.5" y="150" fill="013d1c"></use><use xlink:href="#SvgjsSymbol1007" x="212.5" y="150" fill="#336843"></use><use xlink:href="#SvgjsSymbol1008" x="212.5" y="150" fill="#001900"></use></g><g><use xlink:href="#SvgjsSymbol1006" x="250" y="137.5" fill="013d1c"></use><use xlink:href="#SvgjsSymbol1007" x="250" y="137.5" fill="#336843"></use><use xlink:href="#SvgjsSymbol1008" x="250" y="137.5" fill="#001900"></use></g><g><use xlink:href="#SvgjsSymbol1006" x="325" y="125" fill="013d1c"></use><use xlink:href="#SvgjsSymbol1007" x="325" y="125" fill="#336843"></use><use xlink:href="#SvgjsSymbol1008" x="325" y="125" fill="#001900"></use></g><g><use xlink:href="#SvgjsSymbol1006" x="312.5" y="137.5" fill="013d1c"></use><use xlink:href="#SvgjsSymbol1007" x="312.5" y="137.5" fill="#336843"></use><use xlink:href="#SvgjsSymbol1008" x="312.5" y="137.5" fill="#001900"></use></g><g><use xlink:href="#SvgjsSymbol1006" x="350" y="137.5" fill="013d1c"></use><use xlink:href="#SvgjsSymbol1007" x="350" y="137.5" fill="#336843"></use><use xlink:href="#SvgjsSymbol1008" x="350" y="137.5" fill="#001900"></use></g><g><use xlink:href="#SvgjsSymbol1006" x="587.5" y="450" fill="013d1c"></use><use xlink:href="#SvgjsSymbol1007" x="587.5" y="450" fill="#336843"></use><use xlink:href="#SvgjsSymbol1008" x="587.5" y="450" fill="#001900"></use></g><g><use xlink:href="#SvgjsSymbol1006" x="600" y="462.5" fill="013d1c"></use><use xlink:href="#SvgjsSymbol1007" x="600" y="462.5" fill="#336843"></use><use xlink:href="#SvgjsSymbol1008" x="600" y="462.5" fill="#001900"></use></g><g><use xlink:href="#SvgjsSymbol1006" x="187.5" y="225" fill="013d1c"></use><use xlink:href="#SvgjsSymbol1007" x="187.5" y="225" fill="#336843"></use><use xlink:href="#SvgjsSymbol1008" x="187.5" y="225" fill="#001900"></use></g><g><use xlink:href="#SvgjsSymbol1006" x="100" y="175" fill="013d1c"></use><use xlink:href="#SvgjsSymbol1007" x="100" y="175" fill="#336843"></use><use xlink:href="#SvgjsSymbol1008" x="100" y="175" fill="#001900"></use></g><g><use xlink:href="#SvgjsSymbol1006" x="62.5" y="137.5" fill="013d1c"></use><use xlink:href="#SvgjsSymbol1007" x="62.5" y="137.5" fill="#336843"></use><use xlink:href="#SvgjsSymbol1008" x="62.5" y="137.5" fill="#001900"></use></g><g><use xlink:href="#SvgjsSymbol1006" x="437.5" y="362.5" fill="013d1c"></use><use xlink:href="#SvgjsSymbol1007" x="437.5" y="362.5" fill="#336843"></use><use xlink:href="#SvgjsSymbol1008" x="437.5" y="362.5" fill="#001900"></use></g><g><use xlink:href="#SvgjsSymbol1006" x="325" y="412.5" fill="013d1c"></use><use xlink:href="#SvgjsSymbol1007" x="325" y="412.5" fill="#336843"></use><use xlink:href="#SvgjsSymbol1008" x="325" y="412.5" fill="#001900"></use></g><g><use xlink:href="#SvgjsSymbol1006" x="337.5" y="412.5" fill="013d1c"></use><use xlink:href="#SvgjsSymbol1007" x="337.5" y="412.5" fill="#336843"></use><use xlink:href="#SvgjsSymbol1008" x="337.5" y="412.5" fill="#001900"></use></g><g><use xlink:href="#SvgjsSymbol1006" x="575" y="250" fill="013d1c"></use><use xlink:href="#SvgjsSymbol1007" x="575" y="250" fill="#336843"></use><use xlink:href="#SvgjsSymbol1008" x="575" y="250" fill="#001900"></use></g><g><use xlink:href="#SvgjsSymbol1006" x="575" y="250" fill="013d1c"></use><use xlink:href="#SvgjsSymbol1007" x="575" y="250" fill="#336843"></use><use xlink:href="#SvgjsSymbol1008" x="575" y="250" fill="#001900"></use></g><g><use xlink:href="#SvgjsSymbol1006" x="687.5" y="187.5" fill="013d1c"></use><use xlink:href="#SvgjsSymbol1007" x="687.5" y="187.5" fill="#336843"></use><use xlink:href="#SvgjsSymbol1008" x="687.5" y="187.5" fill="#001900"></use></g></g><symbol id="SvgjsSymbol1000"><polygon points="0,12.5 25,0 50,12.5 25,25"></polygon></symbol><symbol id="SvgjsSymbol1001"><polygon points="0,12.5 25,25 25,50 0,37.5"></polygon></symbol><symbol id="SvgjsSymbol1002"><polygon points="25,25 50,12.5 50,37.5 25,50"></polygon></symbol><g></g><symbol id="SvgjsSymbol1003"><polygon points="0,18.75 37.5,0 75,18.75 37.5,37.5"></polygon></symbol><symbol id="SvgjsSymbol1004"><polygon points="0,18.75 37.5,37.5 37.5,75 0,56.25"></polygon></symbol><symbol id="SvgjsSymbol1005"><polygon points="37.5,37.5 75,18.75 75,56.25 37.5,75"></polygon></symbol><symbol id="SvgjsSymbol1006"><polygon points="0,12.5 25,0 50,12.5 25,25"></polygon></symbol><symbol id="SvgjsSymbol1007"><polygon points="0,12.5 25,25 25,50 0,37.5"></polygon></symbol><symbol id="SvgjsSymbol1008"><polygon points="25,25 50,12.5 50,37.5 25,50"></polygon></symbol></svg>